<?xml version="1.0" encoding="UTF-8"?>
<svg version="1.1" xmlns="http://www.w3.org/2000/svg" width="2000" height="1500">
<path d="M0 0 C660 0 1320 0 2000 0 C2000 495 2000 990 2000 1500 C1340 1500 680 1500 0 1500 C0 1005 0 510 0 0 Z " fill="#FEFEFE" transform="translate(0,0)"/>
<path d="M0 0 C4.98090939 1.79312738 8.12526872 4.61609464 11 9 C12.14633742 11.72828306 12.86596317 14.50283363 13.5625 17.375 C13.86546997 18.54397827 13.86546997 18.54397827 14.17456055 19.73657227 C14.59044693 21.35100762 14.99902978 22.96734153 15.40039062 24.58544922 C15.98458243 26.93791541 16.59058489 29.28368095 17.203125 31.62890625 C17.57397906 33.0648302 17.94381712 34.50101705 18.3125 35.9375 C18.48402588 36.60507324 18.65555176 37.27264648 18.83227539 37.96044922 C19.52295147 40.73107166 20 43.13034403 20 46 C20.65742187 45.87995605 21.31484375 45.75991211 21.9921875 45.63623047 C39.55719054 42.47369689 57.16847839 39.97148116 74.875 37.75 C75.90157715 37.61962341 76.9281543 37.48924683 77.98583984 37.35491943 C96.49678932 35.01370268 114.72983863 33.79727543 133.3894043 33.75976562 C136.29830403 33.75004743 139.20649862 33.71889012 142.11523438 33.6875 C158.80313023 33.59105553 174.66427754 35.21176461 190.5 40.75 C191.519729 41.09998047 192.53945801 41.44996094 193.59008789 41.81054688 C200.79909726 44.37282352 207.01859555 47.14614935 213 52 C214.18529297 52.90492188 214.18529297 52.90492188 215.39453125 53.828125 C226.59944006 62.97043865 231.43318757 75.68822761 236 89 C236 89.66 236 90.32 236 91 C236.8780127 90.92998779 237.75602539 90.85997559 238.66064453 90.7878418 C250.01893113 89.97262272 261.34085577 89.81381098 272.72607422 89.81469727 C275.86309341 89.81250831 278.99976119 89.79427024 282.13671875 89.77539062 C297.24030942 89.73271986 312.29367443 90.27345445 327.0625 93.75 C327.79090088 93.91773926 328.51930176 94.08547852 329.26977539 94.25830078 C349.63205414 99.16102051 369.07811257 107.13195113 380.95075989 125.26278687 C387.65312514 136.35980537 390.8970736 150.35579386 394.9168396 162.58132935 C396.78496192 168.26190968 398.66858715 173.9373511 400.55078125 179.61328125 C400.92874344 180.75419724 401.30670563 181.89511322 401.69612122 183.07060242 C405.12996834 193.42312476 408.64517712 203.74668478 412.1875 214.0625 C417.25156248 228.8193303 422.21774637 243.60648189 427.13427734 258.41308594 C431.66715019 272.05984567 436.29161644 285.67072973 441.01171875 299.25390625 C441.35170898 300.23657471 441.69169922 301.21924316 442.04199219 302.23168945 C442.66378014 304.02844113 443.28921869 305.82393518 443.91894531 307.61791992 C444.1919043 308.4091626 444.46486328 309.20040527 444.74609375 310.015625 C444.98126709 310.69012695 445.21644043 311.36462891 445.45874023 312.05957031 C446.74127162 316.65747716 446.47208648 320.66242164 444.875 325.1875 C440.74731301 331.37903049 440.74731301 331.37903049 437 333 C427.31935434 334.04752632 417.92781757 332.38009809 408.45263672 330.60626221 C360.11947307 321.67077407 310.66466762 321.39522367 262 328 C260.80584473 328.16016602 259.61168945 328.32033203 258.38134766 328.48535156 C245.87831268 330.22841194 233.66102622 332.8493674 221.45532227 336.06982422 C207.74920224 339.59130729 207.74920224 339.59130729 202.04199219 337.16894531 C198.71493333 335.07179447 196.70114002 332.84588483 195.00830078 329.30297852 C194.67034485 328.59609894 194.33238892 327.88921936 193.98419189 327.16091919 C192.47746133 323.85269951 191.05744883 320.51610407 189.6796875 317.15234375 C189.37906906 316.42586136 189.07845062 315.69937897 188.76872253 314.95088196 C188.13022247 313.40763721 187.49291104 311.8639002 186.85671997 310.31970215 C185.19914931 306.29750792 183.53186277 302.27935555 181.86328125 298.26171875 C181.36878731 297.07088181 181.36878731 297.07088181 180.86430359 295.85598755 C176.70085506 285.84998351 172.37716329 275.91423556 168 266 C143.52430214 266.69930565 119.82821147 271.44896786 96.06616211 277.00195312 C95.22174561 277.19883728 94.3773291 277.39572144 93.50732422 277.59857178 C91.91182839 277.97211346 90.31713405 278.34910054 88.72338867 278.7300415 C85.74392066 279.43128637 83.0728421 280 80 280 C89.04295729 318.83392526 89.04295729 318.83392526 99.16601562 357.39355469 C100.78390748 363.1615763 102.32570562 368.94679116 103.8125 374.75 C104.14133179 376.00151855 104.14133179 376.00151855 104.47680664 377.27832031 C105.87560156 382.81030313 106.90153234 387.54582863 104.875 393.0625 C102.10578974 397.40092941 98.98262186 400.33912605 94 402 C89.18353788 402.46312136 85.70226845 402.02454785 81.55348206 399.37783813 C76.33512538 394.74949318 74.91395158 386.7241605 73.37890625 380.2265625 C73.15226791 379.30394623 72.92562958 378.38132996 72.69212341 377.43075562 C71.97322124 374.49761742 71.26722896 371.56157241 70.5625 368.625 C69.85899141 365.72476211 69.15263803 362.82524923 68.44358826 359.92636108 C68.00565944 358.13269284 67.5710709 356.33820316 67.14100647 354.54263306 C65.96913115 349.70805212 64.70420047 344.90966477 63.35173702 340.12222099 C60.13052797 328.71561487 57.2682127 317.22913015 54.43869019 305.71989441 C53.54049447 302.06674901 52.6389283 298.41444896 51.73657227 294.7623291 C49.65965018 286.35371238 47.58751647 277.94391844 45.51567078 269.53404999 C43.45994893 261.18988518 41.40210304 252.84624952 39.34078979 244.50346375 C38.46082544 240.93825391 37.58397286 237.37228874 36.70727539 233.80627441 C34.23190158 223.76760959 31.70144227 213.7609572 28.88205719 203.81324768 C26.2405429 194.4196639 23.95178397 184.93579545 21.62388611 175.4606781 C20.75930818 171.94194941 19.89134015 168.42407112 19.02258301 164.90637207 C16.86738077 156.1768327 14.71779524 147.44591237 12.5680542 138.71502686 C10.74396286 131.30767148 8.91768005 123.9008628 7.08860779 116.49473572 C6.2418737 113.06248239 5.39826245 109.629472 4.55480957 106.19641113 C1.89261615 95.39408664 -0.87359447 84.63856509 -3.89767456 73.93185425 C-5.47230038 68.35049234 -6.9105257 62.73532505 -8.33203125 57.11328125 C-8.6135051 56.00115768 -8.89497894 54.88903412 -9.1849823 53.74320984 C-9.76842046 51.43240591 -10.35055992 49.12127368 -10.93139648 46.80981445 C-11.52399938 44.45762921 -12.12042031 42.1064029 -12.72045898 39.75610352 C-13.59906247 36.31464908 -14.46678766 32.87061563 -15.33203125 29.42578125 C-15.60070511 28.3809407 -15.86937897 27.33610016 -16.14619446 26.25959778 C-19.31898417 13.49141454 -19.31898417 13.49141454 -16.3125 7.8125 C-11.39235047 1.82853435 -7.75210244 -0.51680683 0 0 Z " fill="#FF5731" transform="translate(780,346)"/>
<path d="M0 0 C1.11568359 -0.00773438 2.23136719 -0.01546875 3.38085938 -0.0234375 C13.50849063 0.0002945 22.11286346 1.214707 31.125 5.9375 C31.80820313 6.28619141 32.49140625 6.63488281 33.1953125 6.99414062 C38.62192384 9.84130957 43.474282 13.171584 48.0625 17.25 C48.24425781 16.36248047 48.24425781 16.36248047 48.4296875 15.45703125 C48.59726563 14.66683594 48.76484375 13.87664063 48.9375 13.0625 C49.09992188 12.28519531 49.26234375 11.50789062 49.4296875 10.70703125 C50.0625 8.25 50.0625 8.25 52.0625 3.25 C69.5525 3.25 87.0425 3.25 105.0625 3.25 C105.15336351 22.95864491 105.22680582 42.66711598 105.26974869 62.37591839 C105.29023215 71.5303932 105.31807468 80.68472709 105.36425781 89.83911133 C105.40456748 97.83318387 105.43003555 105.82715422 105.43885398 113.8213256 C105.44399548 118.04049955 105.45576834 122.25938154 105.48542023 126.47846031 C105.73974426 164.15345405 104.70397865 206.85708879 77.44140625 235.96484375 C68.17306504 244.86793013 57.1829932 249.52094425 45 253 C44.26845703 253.21092285 43.53691406 253.4218457 42.78320312 253.63916016 C19.59077242 259.93292085 -8.24882128 257.39326103 -29.9375 247.25 C-30.86433594 246.83234375 -31.79117187 246.4146875 -32.74609375 245.984375 C-40.71770803 242.0494505 -46.70122149 236.459398 -52.9375 230.25 C-53.6078125 229.61449219 -54.278125 228.97898437 -54.96875 228.32421875 C-64.16418594 218.89889691 -72.9375 200.55326627 -72.9375 187.25 C-65.33171381 187.06441476 -57.72616296 186.92238247 -50.11862659 186.83550262 C-46.58567505 186.79379593 -43.05427514 186.73726492 -39.5222168 186.64648438 C-35.4586729 186.54270066 -31.39675093 186.5040753 -27.33203125 186.46875 C-25.43491142 186.40681458 -25.43491142 186.40681458 -23.49946594 186.34362793 C-14.88563707 186.33922017 -14.88563707 186.33922017 -12.1033783 189.01185608 C-10.78613281 191.17016602 -10.78613281 191.17016602 -9.85064697 193.32643127 C-8.37042948 196.44454934 -5.92758845 197.32521969 -2.875 198.6875 C-1.85277344 199.16058594 -0.83054687 199.63367187 0.22265625 200.12109375 C9.78882074 203.92387441 20.37744059 203.37067221 29.796875 199.36328125 C36.94144957 195.85258513 39.95879097 190.41384803 43.0625 183.25 C45.57593059 175.10219656 45.28440142 166.6945819 45.0625 158.25 C44.40894531 159.04664063 44.40894531 159.04664063 43.7421875 159.859375 C34.8739167 170.37844946 23.36877087 175.27577301 9.7578125 176.96484375 C-13.28316099 178.74284699 -35.30255892 176.15855178 -53.5625 160.6015625 C-71.76001233 142.58363089 -79.06561301 118.62505979 -79.26708984 93.46948242 C-79.2614502 92.26267822 -79.25581055 91.05587402 -79.25 89.8125 C-79.24436035 88.54059814 -79.2387207 87.26869629 -79.23291016 85.95825195 C-78.93053537 62.59905101 -71.39588485 40.96463826 -55.9375 23.25 C-55.41800781 22.63511719 -54.89851563 22.02023437 -54.36328125 21.38671875 C-40.43029138 6.12009257 -20.05959043 -0.13858094 0 0 Z " fill="#012040" transform="translate(1174.9375,897.75)"/>
<path d="M0 0 C18.81 0 37.62 0 57 0 C57 76.23 57 152.46 57 231 C38.52 231 20.04 231 1 231 C0.67 226.38 0.34 221.76 0 217 C-1.0725 217.86625 -2.145 218.7325 -3.25 219.625 C-21.69118975 233.24706351 -43.69681194 234.98740007 -65.875 232.375 C-83.76729803 229.03757653 -99.15905405 218.89133081 -110.00390625 204.3046875 C-125.95922245 180.11325776 -130.29881413 150.88761488 -125.74609375 122.53515625 C-120.78108976 99.00987556 -109.3646212 79.41576862 -89 66 C-68.8993455 54.27056239 -44.26264418 52.27989615 -22 58 C-14.10492226 60.56203904 -6.92770827 64.07229173 -1 70 C-0.67 46.9 -0.34 23.8 0 0 Z " fill="#001F3F" transform="translate(1678,842)"/>
<path d="M0 0 C19.47 0 38.94 0 59 0 C59 29.37 59 58.74 59 89 C86.39 89 113.78 89 142 89 C142 59.63 142 30.26 142 0 C161.8 0 181.6 0 202 0 C202 76.23 202 152.46 202 231 C182.2 231 162.4 231 142 231 C142 202.29 142 173.58 142 144 C114.61 144 87.22 144 59 144 C59 172.71 59 201.42 59 231 C39.53 231 20.06 231 0 231 C0 154.77 0 78.54 0 0 Z " fill="#022141" transform="translate(265,842)"/>
<path d="M0 0 C0.75268158 -0.00358521 1.50536316 -0.00717041 2.28085327 -0.01086426 C21.28318703 -0.05984673 46.51187482 0.93174538 61.48828125 14.171875 C66.22123211 19.03742461 68.25200277 24.99518351 70.625 31.25 C71.06779297 32.37212891 71.51058594 33.49425781 71.96679688 34.65039062 C74.09858613 40.08321389 76.15197116 45.54463371 78.19056702 51.01290894 C81.56051377 60.04937119 85.07760648 69.02255252 88.63876343 77.98522949 C90.49053647 82.64631979 92.33714974 87.30945283 94.18359375 91.97265625 C94.57337906 92.95692596 94.96316437 93.94119568 95.36476135 94.95529175 C101.04225116 109.30232107 106.66156787 123.67225313 112.28564453 138.0402832 C112.68942322 139.07115555 113.0932019 140.10202789 113.50921631 141.16413879 C114.29116118 143.16104199 115.0723134 145.15825579 115.8526001 147.1558075 C117.53057881 151.44397786 119.22141627 155.72458341 120.97509766 159.98242188 C121.40312431 161.02677399 121.40312431 161.02677399 121.83979797 162.09222412 C122.57960893 163.88918241 123.32808782 165.68256566 124.07739258 167.47558594 C125.0625 170.3125 125.0625 170.3125 125.0625 174.3125 C121.81232337 174.17045321 118.56240484 174.02312491 115.3125 173.875 C114.41144531 173.83568359 113.51039063 173.79636719 112.58203125 173.75585938 C107.84810227 173.53762861 103.13790004 173.2427744 98.41870117 172.80761719 C92.47192821 172.30608109 86.56360789 172.12032599 80.59765625 172.07421875 C79.53841446 172.06447021 78.47917267 172.05472168 77.38783264 172.04467773 C52.71029285 171.86463595 28.54533818 172.45111895 4.1116333 176.01501465 C2.07010623 176.31139576 0.02730701 176.59687692 -2.01611328 176.87988281 C-20.30422155 179.43473942 -38.19815986 183.19530823 -56.10791016 187.63574219 C-58.70913954 188.25788264 -61.31378111 188.79557999 -63.9375 189.3125 C-71.43351969 162.22552522 -78.31122607 135.00746421 -84.99462891 107.70983887 C-87.00912557 99.48289234 -89.02847963 91.25714615 -91.05231285 83.03249168 C-91.74422505 80.21628212 -92.43269506 77.39924842 -93.12080383 74.58210754 C-95.53534714 64.73486372 -98.08917699 54.9420822 -100.84957886 45.18591309 C-102.41526472 39.64931186 -103.84674781 34.07968613 -105.25 28.5 C-105.51361328 27.47841797 -105.77722656 26.45683594 -106.04882812 25.40429688 C-106.29697266 24.41880859 -106.54511719 23.43332031 -106.80078125 22.41796875 C-107.02032471 21.55324951 -107.23986816 20.68853027 -107.46606445 19.79760742 C-107.95056103 17.24365059 -108.02197086 14.90555227 -107.9375 12.3125 C-89.25879239 8.90834809 -70.58765713 6.00382247 -51.72802734 3.76660156 C-48.08289795 3.32991854 -44.44219936 2.86488558 -40.80078125 2.3984375 C-27.18275595 0.73659915 -13.70564209 0.02615749 0 0 Z " fill="#FFFEFE" transform="translate(915.9375,408.6875)"/>
<path d="M0 0 C18.81 0 37.62 0 57 0 C57 39.6 57 79.2 57 120 C62.94 120 68.88 120 75 120 C75.66 118.35 76.32 116.7 77 115 C78.0220639 113.10000286 79.07851399 111.21828524 80.16015625 109.3515625 C80.7845459 108.27108643 81.40893555 107.19061035 82.05224609 106.07739258 C82.71562988 104.93810303 83.37901367 103.79881348 84.0625 102.625 C84.74835537 101.44238594 85.43406428 100.25968693 86.11962891 99.0769043 C95.35912574 83.15807953 95.35912574 83.15807953 98.90673828 77.66870117 C100.4379703 75.17776005 101.40431295 72.89243069 102.20922852 70.08642578 C103.80817114 65.36250125 105.68364146 61.71581661 110 59 C119.90364679 56.51455445 130.63595177 57.52308734 140.74951172 57.97003174 C144.60978328 58.12435703 148.47150815 58.19216446 152.33398438 58.26757812 C159.89333265 58.42777547 167.4454198 58.68321248 175 59 C173.89407265 60.90897528 172.78649147 62.8169925 171.67822266 64.72460938 C171.06161774 65.78723999 170.44501282 66.84987061 169.8097229 67.94470215 C167.4692136 71.89610987 164.95869275 75.705103 162.375 79.5 C161.33102519 81.05010416 160.28809515 82.60091235 159.24609375 84.15234375 C158.7135498 84.94495605 158.18100586 85.73756836 157.63232422 86.55419922 C154.86510917 90.70046909 152.15005625 94.88033998 149.4375 99.0625 C148.89561035 99.89797363 148.3537207 100.73344727 147.79541016 101.59423828 C146.19599858 104.0622172 144.59790921 106.53104818 143 109 C141.54424104 111.24652988 140.08829119 113.49293514 138.63183594 115.73901367 C137.72225903 117.14500102 136.81528517 118.55267635 135.91113281 119.9621582 C133.74009425 123.34340953 131.53651742 126.69039735 129.24609375 129.9921875 C128.81458008 130.62656738 128.38306641 131.26094727 127.93847656 131.91455078 C127.12852758 133.10291855 126.30442427 134.28181184 125.46386719 135.44873047 C124.21934412 137.20702183 124.21934412 137.20702183 123 140 C123.88905031 144.56281193 127.19826609 148.59156576 129.75 152.4375 C130.75215695 153.96688809 131.75341595 155.49686485 132.75390625 157.02734375 C133.28387207 157.83671387 133.81383789 158.64608398 134.35986328 159.47998047 C137.17023378 163.79802814 139.92723666 168.14981873 142.6875 172.5 C147.80190932 180.54845401 152.92526116 188.59109525 158.0625 196.625 C158.72596436 197.66342041 159.38942871 198.70184082 160.07299805 199.77172852 C163.32338784 204.85093529 166.59204359 209.91663241 169.90234375 214.95703125 C170.51005615 215.88370605 171.11776855 216.81038086 171.74389648 217.76513672 C172.88903299 219.50775652 174.03810301 221.24779972 175.19165039 222.98486328 C175.69559326 223.75169434 176.19953613 224.51852539 176.71875 225.30859375 C177.16154297 225.97689209 177.60433594 226.64519043 178.06054688 227.33374023 C179 229 179 229 179 231 C170.49857851 231.20884949 161.99823405 231.36859675 153.49487877 231.46630955 C149.54595508 231.51321686 145.59879017 231.57679045 141.65087891 231.67895508 C137.83817006 231.77699952 134.0271483 231.83060624 130.21327591 231.85389519 C128.76101742 231.87048204 127.30884797 231.90287767 125.85731125 231.95157051 C114.50428903 232.31714799 114.50428903 232.31714799 110.85551453 229.12229919 C109.29431478 226.81170914 108.12417647 224.54769077 107 222 C106.39937744 221.06148193 105.79875488 220.12296387 105.17993164 219.15600586 C104.67840576 218.35042236 104.17687988 217.54483887 103.66015625 216.71484375 C102.78834717 215.31709717 102.78834717 215.31709717 101.89892578 213.89111328 C101.29290527 212.9164209 100.68688477 211.94172852 100.0625 210.9375 C98.74877302 208.82938028 97.43496849 206.72130889 96.12109375 204.61328125 C95.44804199 203.53256348 94.77499023 202.4518457 94.08154297 201.33837891 C91.96608802 197.94561196 89.84541664 194.55616651 87.72265625 191.16796875 C87.0361499 190.07170166 86.34964355 188.97543457 85.64233398 187.84594727 C84.31557652 185.72759905 82.98828057 183.60958799 81.66040039 181.49194336 C81.06348389 180.53811768 80.46656738 179.58429199 79.8515625 178.6015625 C79.32385254 177.75932129 78.79614258 176.91708008 78.25244141 176.04931641 C77 174 77 174 76 172 C69.73 171.67 63.46 171.34 57 171 C57 190.47 57 209.94 57 230 C38.19 230 19.38 230 0 230 C0 154.1 0 78.2 0 0 Z " fill="#001F3F" transform="translate(903,842)"/>
<path d="M0 0 C5.51182409 5.03426214 10.07426198 10.60427578 13.89941406 17.01733398 C14.34671875 17.73663086 14.79402344 18.45592773 15.25488281 19.19702148 C18.33051949 24.66692302 20.02327639 30.43129505 21.64941406 36.45483398 C21.86033691 37.22947998 22.07125977 38.00412598 22.28857422 38.80224609 C24.71434972 48.32326569 25.05102723 57.93695426 25.01293945 67.72119141 C25.01308548 68.72741547 25.01323151 69.73363953 25.01338196 70.77035522 C25.01269231 74.0545273 25.00494488 77.33864072 24.99707031 80.62280273 C24.99520276 82.91636626 24.99378045 85.20993019 24.99278259 87.50349426 C24.98898399 93.50885134 24.97917667 99.51418382 24.96807861 105.51953125 C24.95599776 112.74172711 24.95144959 119.96393124 24.94562531 127.18613434 C24.93596327 138.1298846 24.91678816 149.07358102 24.89941406 160.01733398 C7.07941406 160.01733398 -10.74058594 160.01733398 -29.10058594 160.01733398 C-29.43058594 153.41733398 -29.76058594 146.81733398 -30.10058594 140.01733398 C-31.39996094 141.54358398 -32.69933594 143.06983398 -34.03808594 144.64233398 C-43.07341913 154.58961851 -55.53548644 161.34795842 -69.21386719 162.13964844 C-89.67255678 162.81683106 -109.44095896 160.42857112 -125.10058594 146.01733398 C-135.12633776 134.24331939 -138.27989077 124.05882357 -138.41308594 108.89233398 C-138.44208984 107.81467773 -138.47109375 106.73702148 -138.50097656 105.62670898 C-138.59769703 93.27624932 -134.52850994 82.96920408 -126.13574219 73.89233398 C-101.71854873 50.57899195 -61.26330133 54.62561546 -30.10058594 55.01733398 C-30.38509932 53.59401038 -30.67852365 52.17246651 -30.97558594 50.75170898 C-31.13800781 49.95990234 -31.30042969 49.1680957 -31.46777344 48.35229492 C-33.03488773 42.56993339 -36.39064398 39.09532282 -41.47558594 36.07983398 C-49.6798919 32.38177368 -59.31485817 32.66719595 -67.72558594 35.64233398 C-72.70714932 37.96319546 -75.63083036 41.07782282 -78.10058594 46.01733398 C-96.91058594 46.01733398 -115.72058594 46.01733398 -135.10058594 46.01733398 C-133.03231959 27.40293683 -125.6822905 13.30105404 -110.94433594 1.37670898 C-81.67321531 -20.20454097 -28.71308742 -24.43583353 0 0 Z " fill="#012040" transform="translate(645.1005859375,912.982666015625)"/>
<path d="M0 0 C12.40394462 10.61060323 20.02337465 24.9788594 23.28125 40.90625 C23.28125 45.19625 23.28125 49.48625 23.28125 53.90625 C5.13125 53.90625 -13.01875 53.90625 -31.71875 53.90625 C-33.36875 50.60625 -35.01875 47.30625 -36.71875 43.90625 C-42.53352892 37.69500888 -49.35388291 35.80058579 -57.65625 35.40625 C-64.71749528 35.61313999 -70.19787675 37.84825018 -75.53125 42.48046875 C-84.89709101 52.52533323 -85.17016755 64.72297372 -85.00390625 77.69921875 C-84.79115544 83.68083073 -83.55012567 88.61969543 -80.71875 93.90625 C-80.1825 94.999375 -79.64625 96.0925 -79.09375 97.21875 C-74.58034454 102.3260246 -67.82430904 106.55500301 -60.93359375 107.14453125 C-52.71881474 107.33056319 -45.35109864 106.87122638 -38.875 101.328125 C-35.22803734 97.35937152 -33.96753976 94.15342611 -31.71875 88.90625 C-12.90875 88.90625 5.90125 88.90625 25.28125 88.90625 C25.28125 109.37298667 18.94409017 123.72131655 5.15625 138.46875 C-3.54751334 146.92172694 -14.21645533 152.32294091 -25.71875 155.90625 C-26.33717773 156.10234863 -26.95560547 156.29844727 -27.59277344 156.50048828 C-47.37046673 162.52042827 -72.3423492 162.85625597 -91.71875 155.21875 C-92.73146973 154.82465942 -92.73146973 154.82465942 -93.76464844 154.42260742 C-114.17163051 146.22552932 -128.15217732 131.96007585 -136.96386719 111.81982422 C-139.24467549 106.03813746 -140.4950331 99.9817892 -141.71875 93.90625 C-141.94433594 92.83890625 -142.16992188 91.7715625 -142.40234375 90.671875 C-145.22284347 75.34391791 -144.19575466 60.00948901 -140.71875 44.90625 C-140.4403125 43.68035156 -140.161875 42.45445312 -139.875 41.19140625 C-136.59492414 28.39628276 -130.47037948 17.73916189 -121.71875 7.90625 C-120.77902344 6.84277344 -120.77902344 6.84277344 -119.8203125 5.7578125 C-90.01266418 -25.99645775 -33.29582109 -25.64160935 0 0 Z " fill="#01203F" transform="translate(845.71875,915.09375)"/>
<path d="M0 0 C6.63041796 -0.05150951 13.26078275 -0.08606537 19.89135742 -0.10986328 C22.13812182 -0.11980401 24.3848737 -0.13336128 26.6315918 -0.15087891 C82.45244246 -0.57461387 82.45244246 -0.57461387 103.3515625 15.3125 C108.40770232 20.48845356 110.43344883 26.44299674 112.65234375 33.1875 C113.15687576 34.68456985 113.15687576 34.68456985 113.67160034 36.21188354 C114.76836754 39.47192297 115.85288404 42.7359 116.9375 46 C117.69982797 48.2726127 118.46310198 50.54490827 119.22729492 52.81689453 C120.76585409 57.39277489 122.30066959 61.96988454 123.83300781 66.54785156 C126.5232943 74.57314804 129.26994605 82.57870782 132.02404785 90.58227539 C137.73518792 107.18958809 143.31313512 123.83988255 148.84040833 140.50917053 C150.53577445 145.61682367 152.25065422 150.71767953 153.97265625 155.81640625 C154.674764 157.90093567 155.37648209 159.98559577 156.07803345 162.0703125 C156.52174455 163.38578826 156.96700667 164.70074199 157.41390991 166.01513672 C158.02474916 167.8121159 158.62971852 169.61108724 159.234375 171.41015625 C159.57694336 172.42215088 159.91951172 173.43414551 160.27246094 174.47680664 C161 177 161 177 161 180 C159.79214844 179.81824219 158.58429688 179.63648438 157.33984375 179.44921875 C116.27524741 173.54608405 75.3074677 172.48748028 34 176 C32.30399658 176.14405273 32.30399658 176.14405273 30.57373047 176.29101562 C24.37890219 176.82550704 18.18835575 177.39531659 12 178 C15.56422269 173.70000774 19.19641522 169.72518995 23.375 166 C24.33277344 165.14277344 25.29054688 164.28554688 26.27734375 163.40234375 C28.49146937 161.4487035 30.71041209 159.50132183 32.9375 157.5625 C36.47681344 154.48034788 39.9650733 151.34457732 43.4375 148.1875 C43.97044678 147.70676025 44.50339355 147.22602051 45.05249023 146.73071289 C48.86262789 143.25162302 50.21857229 141.37142007 50.5859375 136.2421875 C50.47252491 125.9155116 45.52550804 116.49910817 41.625 107.125 C40.75932656 105.00037041 39.8960022 102.87478232 39.03491211 100.74829102 C37.25230667 96.34910436 35.46112491 91.95355751 33.66455078 87.56005859 C29.91269354 78.35623865 26.29901663 69.09886866 22.69204712 59.83752441 C21.56959956 56.95572758 20.44472535 54.07488965 19.3190918 51.19433594 C17.54461578 46.65266247 15.77230305 42.11014995 14.00109863 37.56719971 C13.02442641 35.06263866 12.04696743 32.55838595 11.06933594 30.05419922 C9.61760843 26.33470132 8.16858841 22.61416161 6.72213745 18.89260864 C6.20624066 17.56603697 5.68959955 16.23975448 5.17214966 14.91378784 C4.4757076 13.12833208 3.78267683 11.3415468 3.08984375 9.5546875 C2.70691162 8.56968262 2.32397949 7.58467773 1.92944336 6.56982422 C1.13835794 4.38254679 0.5421837 2.25676171 0 0 Z " fill="#FFFEFE" transform="translate(1028,466)"/>
<path d="M0 0 C0.64469238 0.00100708 1.28938477 0.00201416 1.95361328 0.00305176 C4.34930209 0.00826223 6.74496543 0.02222344 9.140625 0.03515625 C17.184375 0.06609375 17.184375 0.06609375 25.390625 0.09765625 C25.390625 18.57765625 25.390625 37.05765625 25.390625 56.09765625 C14.995625 56.59265625 14.995625 56.59265625 4.390625 57.09765625 C-8.65922435 58.54763951 -17.52594322 61.40435361 -25.984375 71.78515625 C-32.63872835 81.96240256 -30.95204312 96.59398109 -31.0234375 108.203125 C-31.04217678 110.13797303 -31.06175219 112.07281312 -31.0821228 114.00764465 C-31.13315865 119.06600233 -31.17293604 124.12438642 -31.21026611 129.18286133 C-31.25757468 135.27045578 -31.31904869 141.35792212 -31.37811279 147.44541168 C-31.46597644 156.662774 -31.53599002 165.88011612 -31.609375 175.09765625 C-50.749375 175.09765625 -69.889375 175.09765625 -89.609375 175.09765625 C-89.609375 118.33765625 -89.609375 61.57765625 -89.609375 3.09765625 C-72.779375 3.09765625 -55.949375 3.09765625 -38.609375 3.09765625 C-37.289375 8.04765625 -35.969375 12.99765625 -34.609375 18.09765625 C-32.815 15.83921875 -32.815 15.83921875 -30.984375 13.53515625 C-22.86224329 4.44456686 -12.09959265 -0.08944402 0 0 Z " fill="#012040" transform="translate(1408.609375,897.90234375)"/>
<path d="M0 0 C19.14 0 38.28 0 58 0 C58 56.76 58 113.52 58 172 C38.86 172 19.72 172 0 172 C0 115.24 0 58.48 0 0 Z " fill="#012040" transform="translate(1460,901)"/>
<path d="M0 0 C0.84691406 -0.01160156 1.69382812 -0.02320313 2.56640625 -0.03515625 C12.83207492 0.01200609 19.54318144 2.88064798 26.95703125 9.97265625 C34.33237617 18.14533576 35.48052845 28.04894351 35.3125 38.71875 C34.78591207 48.98721462 31.61873518 59.04779227 24.125 66.375 C13.86846204 73.44847445 3.23166748 74.3295177 -8.875 73.375 C-16.08321055 71.79524782 -22.1578622 68.05172686 -26.875 62.375 C-33.53414328 51.43601517 -35.45379222 41.05908773 -33.37890625 28.33203125 C-30.73412827 17.73797709 -25.93513225 9.6913698 -16.875 3.375 C-11.1557099 0.30405113 -6.43167621 -0.08730782 0 0 Z " fill="#FDFDFD" transform="translate(1186.875,949.625)"/>
<path d="M0 0 C6.28462008 5.31775545 10.25866367 13.16384219 11.29101562 21.29101562 C12.27830364 33.92630766 11.18710273 45.60195201 3.25 56 C-4.16976294 63.64747945 -13.62010204 65.99585352 -23.9375 66.3125 C-34.31549792 66.11419431 -42.37408025 62.94902363 -49.625 55.4375 C-57.70534768 45.60133398 -57.98622024 34.48826161 -57.22314453 22.26708984 C-56.35531004 13.45011927 -52.16290043 6.23821083 -46 0 C-32.93372962 -10.70962842 -13.40463914 -9.31846661 0 0 Z " fill="#FDFDFD" transform="translate(1666,957)"/>
<path d="M0 0 C7.60943562 5.46654858 14.28742089 12.48007495 16 22 C16.82821101 34.30097014 15.80172948 44.2125206 7.83203125 54.1796875 C0.37680393 61.5872268 -9.0344028 64.40403745 -19.3125 64.375 C-30.47052353 64.29692146 -37.69238993 61.36235156 -45.79296875 53.453125 C-53.20193993 45.21802075 -53.70127761 37.36879094 -53.46875 26.68359375 C-52.78505054 16.45583376 -48.51995414 9.80486648 -41 3 C-29.19866468 -5.52318662 -13.02257664 -7.47592362 0 0 Z " fill="#012040" transform="translate(1508,825)"/>
<path d="M0 0 C1.27936684 0.00848969 1.27936684 0.00848969 2.58457947 0.01715088 C5.2744368 0.0393121 7.96289791 0.08946641 10.65234375 0.140625 C12.49021496 0.16071634 14.32810732 0.17896246 16.16601562 0.1953125 C20.64115241 0.23910986 25.11526246 0.30799192 29.58984375 0.390625 C28.32922962 9.91779924 24.53253401 15.39061434 17.16015625 21.55859375 C8.44970838 27.76710446 -0.79609348 29.93261959 -11.41015625 28.390625 C-16.14050515 26.3853684 -20.08802949 24.13369242 -22.41015625 19.390625 C-23.278459 14.67913876 -23.12453238 10.81937727 -20.97265625 6.515625 C-14.62876801 1.25483963 -8.07217131 -0.20660276 0 0 Z " fill="#FAFAFB" transform="translate(586.41015625,1002.609375)"/>
<path d="M0 0 C4.87059091 -0.05014865 9.74102533 -0.08606618 14.61181641 -0.10986328 C16.26223372 -0.11980362 17.912634 -0.13336063 19.56298828 -0.15087891 C29.92768886 -0.25799131 39.76740612 0.15259296 50 2 C49.21536377 2.78391113 48.43072754 3.56782227 47.62231445 4.37548828 C46.09026965 5.9088168 44.56195127 7.44591787 43.04296875 8.9921875 C39.23353259 12.85776272 35.33445887 16.5341422 31.21484375 20.06640625 C27.57169768 23.24693059 24.05173132 26.56459921 20.515625 29.86328125 C18.33814358 31.71278799 16.54776146 32.80206606 14 34 C12.00390666 29.31957064 10.01013816 24.6381607 8.01855469 19.95581055 C7.34016328 18.36178587 6.66112794 16.76803508 5.98144531 15.17456055 C5.00678348 12.88922009 4.03441239 10.60291709 3.0625 8.31640625 C2.75626709 7.59973282 2.45003418 6.88305939 2.13452148 6.14466858 C0 1.11387171 0 1.11387171 0 0 Z " fill="#FFFCFB" transform="translate(980,610)"/>
</svg>
